<svg version="1" xmlns="http://www.w3.org/2000/svg" width="501.333" height="501.333" viewBox="0 0 376.000000 376.000000"><path d="M157 17.6c-8.2.8-25 4.7-31.5 7.4-27 11.1-43.9 26.3-54 48.4-7.2 15.5-8 22-9 68.1-.6 27.9-1 32.6-3.2 40.4-1 3.4-1.4 7.6-1 11 1.4 15.6 16.5 47.6 28.2 59.7 4.1 4.3 11 7.1 22.9 9.3 5.4 1 5.9.6 7.6-6.7 2-8.8-.5-10.8-5.9-4.7-3.8 4.4-5.3 4.1-14.5-2.7-9.3-7-16.7-17.1-22.8-31.5-7.9-18.3-7.6-32.5.9-45.6 1.6-2.4 1.6-2.9.3-3.7-.8-.5-2.6-1-3.9-1h-2.4l.7-29.3c.9-37.1 1.9-43.4 9.2-59.4 8.6-18.9 24.5-35 42-42.8 3.3-1.4 6.8-3 7.9-3.5 10.1-4.6 35.6-6.6 52.5-4.1 20.1 3 39.7 10.6 58.1 22.7 8.8 5.8 24.7 21.4 31 30.4 19.5 27.9 33.9 63.5 38.4 95.3 1.7 11.6 1.7 16.5.2 65.7-.2 6.4 0 7.5 1.5 7.8 3.5.7 4.5-6 5.4-33.8.5-13.9.2-22-1-32.3-5.5-47-34.7-112.4-60.7-136.3-9-8.2-25.6-17.9-37.4-21.9-14.7-4.9-23.9-6.5-39.5-6.9-8.5-.2-17.5-.2-20 0z"/><path d="M221.3 45.7c-3.2 1.3-.8 4.5 9.5 12.6 17.2 13.5 29.4 28 32.9 39 1.2 3.8 2.4 5.9 3.8 6.3 1.1.4 3 1.5 4.2 2.6 4.4 4.1 5.8-.5 1.7-5.9-1.4-1.8-3.2-5.7-4-8.6-3.3-11.2-12.5-21.4-36.7-40.5-7.6-6-8.8-6.6-11.4-5.5zM290.1 133.7c-5.1 1-28.8 7.2-31.3 8.2-2.7 1-3.1 1.9-4.2 9.1-.6 3.6 1.5 17.2 3.5 22.5 3.6 9.5 7.9 16.4 14.1 22.6 8.2 8.2 15.5 12.9 16.9 10.8.5-.8.9-1.7.9-2 0-1.1-7.7-12.3-10.6-15.4-9.8-10.5-14.4-16.9-14.4-20 0-6.2 3.5-7.5 21-7.8 9.9-.2 10.5-.3 10.8-2.3.2-1.4-.8-3-2.8-4.8-3.7-3.1-7.3-3.3-17.5-1.1-3.9.9-8.3 1.8-10 2.1l-3 .6 3.2-3.1c3.1-2.9 8.6-5.1 13-5.1 3.4 0 12.8-3.8 14.7-5.9 1.1-1.2 1.6-3.1 1.4-5.2-.3-3.5-1.3-4-5.7-3.2zM227.5 147.9c-1.6.5-6.6 1.4-10.9 2.1-11.5 1.7-30.9 6.9-32.6 8.5-1.1 1.2-1.2 1.7-.1 2.7.9 1 5.9 1.2 19.4 1.1 20.7-.3 20.9-.9-2.3 7.3-18.4 6.4-24 9-24 10.9 0 .8.7 1.8 1.6 2.2 1.8.7 12.2-.8 22.9-3.2 12-2.7 12.8-2.8 12.1-1.7-.3.6-2.1 1.4-3.9 1.7-1.7.4-3.6 1.1-4.2 1.5-.5.4-2.3 1-3.9 1.4-3.4.8-7.6 3.5-7.6 4.8 0 1.3 6.4 3.8 10 3.8 1.7 0 6.3-.7 10.1-1.6 5.5-1.2 7.8-2.3 10.5-5 3.9-4 4.4-7.6 1.3-9.7-2-1.5-1.9-1.5 1.8-2.7 2.1-.7 5.4-2.5 7.3-4 6.4-5.1 10.1-16 6.5-19-1.9-1.6-10-2.2-14-1.1zm-4.5 26.5c0 .2-.7.7-1.6 1-.8.3-1.2.2-.9-.4.6-1 2.5-1.4 2.5-.6zm-4.5 1.6c-.3.5-1.4 1-2.3.9-1.4 0-1.3-.2.3-.9 2.7-1.1 2.7-1.1 2 0z"/><path d="M284.5 167.8c-9.1 3.1-11 4.1-11 5.7 0 3 9.7 3.3 15.8.5 5.4-2.6 9.2-6.3 8.4-8.4-.8-2.1-.5-2.1-13.2 2.2zM76.7 178.6c-2.5 1.3-4.7 4.9-4.7 7.5 0 .5.9 1.8 2 2.9 1.8 1.8 2.4 1.9 4.3.8 1.2-.7 5.3-1.5 9.1-1.8 4-.3 7.1-1 7.3-1.7.6-1.8-4.7-6.1-9.6-7.8-5.3-1.8-4.9-1.8-8.4.1zM92.1 194.8c-2.8 4.1-4.3 15.2-2.2 15.2 2.3 0 9-4 11-6.6 2.8-3.5 2.6-5.6-.5-9.3-3.4-4.1-5.4-3.9-8.3.7zM221.9 212.7c-6.6 6.3-19.4 24.6-20.4 29.3-.8 3.6.9 7 3.5 7 1.1 0 3.2-1.4 4.7-3.1 3.8-4.2 15.9-22.4 18.4-27.7 2.4-4.9 3-10.3 1.2-10.9-.7-.3-4 2.2-7.4 5.4zM275 214.3c-3.5 1.8-3.9 5.4-.6 6.3 2.6.6 5-.2 4.1-1.5-.2-.5.4-1.6 1.5-2.6 3.5-3.2 0-4.7-5-2.2zM297.3 213.7c-1.5.5-1.8 9.9-.5 10.7 1.2.7 5.2-4.9 5.2-7.3 0-2.2-2.7-4.1-4.7-3.4zM238.8 220.1c-3.1 1.2-4.2 3.3-2.3 4.9 1.6 1.4 11.4 3 18.1 3 4.9 0 13.9 2.4 15.9 4.1 1.4 1.4 2.9 1.1 5.3-1.1 2.7-2.6 2.8-5 .2-5.7-1.1-.3-2-1.1-2-1.9 0-3.2-5.5-4.4-19.2-4.3-7.3 0-14.5.5-16 1zM275 244.5c-14.9 3.5-19.3 4.5-29 7-17.6 4.4-27 7.6-27 9.1 0 3.1 4.3 3.9 23.2 4.2 20.5.4 26.4-.5 33.8-5.4 4.3-2.9 9.7-12.1 8.7-14.7-.7-2-2.1-2-9.7-.2zM306.7 251.2c-2.1 1.7-5.5 21.4-3.9 23 1.4 1.4 2.9-1.5 6.4-12.1 3.6-10.4 2.6-14.7-2.5-10.9zM259.8 274.7c-3.8 1-1.8 4.8 4 8.1 3.2 1.8 5.6-.1 4.7-3.7-1-4.3-3.8-5.7-8.7-4.4zM296 294.2c.1 1.8.7 6.9 1.5 11.3s1.5 9.2 1.5 10.7c0 3.7.9 3.5 4.3-1 2.4-3.1 2.8-4.3 2.3-7.9-.7-5.6-5.7-15.7-7.8-16.1-1.4-.3-1.8.3-1.8 3zM114.8 293.1c-2 1.1-3.6 3.9-4.9 8.1-.7 2.5-.3 3.4 2.8 6.9 1.9 2.1 3.8 3.9 4.2 3.9.8 0 3.4-12.2 3.5-16.5.1-2.3-.4-3.1-1.9-3.2-1.1-.2-2.8.2-3.7.8zM122.5 308.3c-2.2 3.1-1.9 6.1 1.1 11 5.8 9.2 18.3 17.6 28.7 19.1 10.5 1.6 11.5-1.7 2-6.5-16.8-8.4-20.2-11-24.5-19.1-3.5-6.5-5.1-7.6-7.3-4.5zM288.8 307.7c-.9 1-2.5 3.6-3.6 5.8-2 3.9-10.7 12.9-22.7 23.2-5.4 4.6-5.9 5.3-4.8 7.1 1.5 2.5 1.3 2.6-8.9 4.3-5.8 1-9.9 1-18.9.1-22-2.3-30.3-1.4-28.6 3.1.7 1.8 7.4 3.7 12.9 3.7 2.5 0 9.1 1.3 14.6 3 21.6 6.4 25.8 4.6 50.2-22.5 2.5-2.8 6.4-6.5 8.7-8.3 4.9-3.9 6.6-8.2 6.1-15.7-.3-5.5-2.2-6.9-5-3.8zM162 341.8c0 1.4 2.3 3 8.8 6 10.7 5 19.1 6.3 24.5 3.7 3.7-1.7 5.5-4.3 3.4-4.9-3.5-1.1-10.7-2.6-14.7-3.1-2.5-.3-6.5-1-9-1.5-10.9-2.1-13-2.2-13-.2z"/></svg>