<svg version="1" xmlns="http://www.w3.org/2000/svg" width="400" height="400" viewBox="0 0 300.000000 300.000000"><path d="M138.3 5C103 7.9 73 22 47.5 47.5 21.6 73.3 8 102.8 5.1 139c-2.6 32.6 5.9 64.5 24.7 93 7.4 11.2 27 30.8 38.2 38.2 38.9 25.7 85.1 32.1 128.5 17.7 35.5-11.9 66.7-39.2 83.9-73.6 16.8-33.7 19.6-74.3 7.5-110.6C277 71 252.7 41.3 222.6 24 197 9.3 167.4 2.6 138.3 5zM222 94.6c8.9 2 13 3.6 13 4.9 0 .6-.7 3.3-1.6 5.9-1.3 3.7-2 4.6-3.3 4.1-7.1-2.7-17.6-4.8-25.2-4.8-7.2 0-9.3.3-13 2.4-6 3.3-8.9 7.9-8.9 14.1 0 9.9 4.4 14.5 19.9 20.8 22.3 9.1 28.5 13.2 32.5 21.2 2.1 4.1 2.6 6.7 2.6 12.3 0 13.7-5.3 21.9-17.8 27.8l-6.7 3.2h-17c-14.3-.1-17.9-.4-22.5-2l-5.5-2-.3-6.4c-.3-6.2-.3-6.3 2-5.7 13.5 4.1 18 4.9 27.8 5 12.4.1 18.3-1.7 22.9-6.9 3.4-3.9 4.6-8.7 3.8-14.6-1.1-8.2-5.4-11.6-23.9-19-24.1-9.6-30.7-16.9-30.8-33.8 0-5.6.5-8.6 2.1-11.8 3-6.1 10-11.9 17.3-14.3 7.7-2.4 23.3-2.6 32.6-.4zm-112.7.9c20.2 3.6 34.2 16.3 39.4 35.8 2.3 8.6 2.3 28-.1 36.7-5 18.4-17 30.2-36.1 35.6-4.5 1.2-11.6 1.8-28.2 2.1l-22.3.5V94h19.8c12.2.1 22.6.6 27.5 1.5z"/><path d="M75 150.1v44.1l15.8-.4c13.2-.4 16.6-.8 21.4-2.7 16.6-6.5 24.2-19.5 24.3-41.6 0-23.7-8.8-37-27.9-42.1-3.2-.9-10.5-1.4-19.3-1.4H75v44.1z"/></svg>