<?xml version="1.0" standalone="no"?>
<!DOCTYPE svg PUBLIC "-//W3C//DTD SVG 20010904//EN"
 "http://www.w3.org/TR/2001/REC-SVG-20010904/DTD/svg10.dtd">
<svg version="1.0" xmlns="http://www.w3.org/2000/svg"
 width="640.000000pt" height="640.000000pt" viewBox="0 0 640.000000 640.000000"
 preserveAspectRatio="xMidYMid meet">
<metadata>
Created by potrace 1.11, written by Peter Selinger 2001-2013
</metadata>
<g transform="translate(0.000000,640.000000) scale(0.100000,-0.100000)"
fill="#000000" stroke="none">
<path d="M1504 5670 c-321 -28 -433 -139 -455 -450 -6 -80 -8 -936 -6 -2105 3
-1958 3 -1971 24 -2060 39 -169 96 -241 228 -284 134 -45 159 -46 1000 -46
780 1 804 1 945 23 353 55 624 153 905 327 226 139 472 355 647 567 498 602
684 1410 497 2169 -108 440 -324 810 -662 1135 -350 337 -741 558 -1162 657
-171 40 -305 57 -500 62 -321 9 -1378 12 -1461 5z m1597 -1216 c435 -73 829
-396 978 -802 56 -152 74 -266 74 -462 0 -191 -11 -263 -64 -425 -60 -179
-152 -318 -311 -470 -153 -146 -305 -242 -480 -303 -175 -62 -196 -64 -645
-69 l-413 -5 0 1276 0 1276 383 0 c304 0 403 -3 478 -16z"/>
</g>
</svg>
