<?xml version="1.0" standalone="no"?>
<!DOCTYPE svg PUBLIC "-//W3C//DTD SVG 20010904//EN"
 "http://www.w3.org/TR/2001/REC-SVG-20010904/DTD/svg10.dtd">
<svg version="1.0" xmlns="http://www.w3.org/2000/svg"
 width="375.000000pt" height="375.000000pt" viewBox="0 0 375.000000 375.000000"
 preserveAspectRatio="xMidYMid meet">
<metadata>
Created by potrace 1.11, written by Peter Selinger 2001-2013
</metadata>
<g transform="translate(0.000000,375.000000) scale(0.100000,-0.100000)"
fill="#000000" stroke="none">
<path d="M1516 3588 c5 -8 2 -9 -9 -5 -10 3 -17 2 -17 -3 0 -6 -5 -10 -11 -10
-5 0 -7 6 -4 13 4 6 -1 3 -9 -7 -9 -11 -16 -16 -16 -12 0 4 -10 0 -22 -8 -16
-12 -25 -13 -35 -4 -10 8 -12 7 -8 -4 3 -8 -4 -23 -16 -34 -13 -10 -19 -13
-14 -5 9 16 -44 -16 -63 -39 -12 -13 -13 -13 -6 0 4 8 -6 2 -22 -15 -16 -16
-27 -33 -26 -37 1 -5 -3 -8 -8 -8 -27 0 -50 -20 -43 -37 3 -7 0 -13 -7 -13 -6
0 -8 -5 -5 -10 4 -6 1 -9 -7 -8 -7 2 -12 -3 -10 -10 1 -8 -2 -11 -8 -7 -7 4
-14 -2 -17 -14 -3 -12 -10 -21 -16 -21 -6 0 -7 -3 -4 -7 4 -3 -1 -12 -11 -20
-11 -10 -12 -12 -2 -8 10 4 9 2 -2 -8 -10 -8 -15 -17 -12 -20 4 -3 -8 -14 -25
-25 -17 -10 -28 -22 -24 -25 6 -6 -11 -11 -29 -8 -4 0 -10 -8 -13 -19 -4 -11
-11 -17 -17 -14 -7 4 -8 2 -4 -4 4 -6 -2 -20 -14 -32 -11 -11 -17 -20 -13 -20
5 0 -3 -10 -17 -21 -14 -11 -19 -18 -11 -14 9 5 8 -1 -4 -19 -10 -14 -22 -26
-27 -26 -5 0 -6 -4 -3 -10 3 -5 1 -10 -5 -10 -6 0 -8 -4 -5 -10 3 -5 1 -10 -6
-10 -6 0 -9 -8 -6 -20 3 -11 1 -18 -3 -15 -5 3 -11 -4 -15 -15 -3 -11 -10 -20
-15 -20 -5 0 -7 -6 -4 -14 3 -8 -3 -23 -14 -34 -10 -10 -18 -26 -16 -35 1 -8
-4 -18 -10 -20 -7 -3 -13 -19 -14 -37 0 -17 -6 -38 -13 -46 -9 -11 -8 -14 2
-14 9 0 10 -3 4 -8 -6 -4 -10 -28 -10 -54 1 -29 -2 -45 -9 -41 -5 4 -7 0 -3
-10 3 -9 0 -18 -9 -21 -8 -3 -14 -12 -14 -21 0 -8 -5 -15 -11 -15 -5 0 -7 -5
-3 -12 5 -8 2 -9 -10 -5 -10 4 -15 3 -11 -3 3 -6 3 -16 -2 -22 -4 -7 -8 -15
-9 -18 -1 -3 -5 -20 -9 -37 -4 -18 -11 -33 -16 -33 -5 0 -9 -7 -9 -15 0 -8 -5
-15 -11 -15 -5 0 -7 -4 -4 -10 3 -5 2 -10 -2 -10 -5 0 -14 -9 -21 -21 -11 -17
-11 -20 0 -14 7 3 5 0 -4 -8 -10 -8 -15 -17 -11 -20 3 -4 1 -7 -5 -7 -6 0 -9
-7 -6 -15 4 -8 1 -15 -6 -15 -6 0 -9 -4 -5 -9 3 -6 -3 -14 -12 -20 -17 -10
-17 -10 2 -11 19 -1 19 -2 -4 -20 -13 -11 -19 -20 -13 -20 6 0 -7 -34 -28 -75
-21 -42 -33 -73 -27 -69 7 3 4 -1 -7 -10 -10 -8 -15 -20 -11 -26 4 -6 1 -18
-7 -27 -9 -12 -9 -15 -1 -9 9 5 11 2 7 -8 -3 -9 -9 -14 -13 -12 -3 2 -6 -22
-5 -55 0 -36 -4 -59 -10 -59 -6 0 -5 -4 2 -8 9 -7 10 -15 3 -35 -7 -17 -7 -28
0 -32 5 -4 6 -12 2 -18 -11 -18 -10 -91 2 -99 6 -5 6 -8 -1 -8 -6 0 -10 -13
-9 -30 1 -16 -3 -30 -9 -30 -6 0 -5 -4 2 -9 9 -5 11 -22 8 -54 -5 -34 -3 -47
6 -47 10 0 9 -3 -1 -9 -9 -6 -10 -11 -2 -15 6 -4 8 -13 4 -19 -12 -19 -11 -77
1 -77 6 0 4 -5 -4 -10 -10 -6 -11 -10 -3 -10 9 0 12 -22 10 -80 -2 -44 2 -85
7 -90 6 -6 7 -10 3 -10 -4 0 -3 -10 4 -22 10 -18 9 -20 -5 -15 -13 5 -15 3 -7
-12 6 -10 7 -21 4 -25 -3 -3 -2 -6 4 -6 5 0 10 -48 12 -118 3 -151 3 -162 13
-162 4 0 8 -9 8 -19 0 -11 5 -23 11 -26 6 -4 8 -13 5 -20 -2 -7 4 -15 15 -18
13 -3 17 -10 13 -21 -4 -9 -2 -16 4 -14 5 2 28 -16 51 -40 22 -23 45 -42 51
-42 5 0 10 -5 10 -10 0 -6 6 -9 13 -8 6 2 11 -2 10 -7 -1 -6 10 -12 25 -13 14
-1 29 -7 33 -13 4 -7 9 -8 13 -1 10 17 69 -17 61 -35 -5 -14 -3 -14 12 -2 10
7 15 10 12 6 -4 -5 4 -20 17 -34 13 -14 21 -29 18 -34 -3 -5 3 -6 12 -2 14 5
16 3 11 -11 -4 -9 -3 -15 2 -12 5 3 12 -1 15 -10 3 -8 11 -12 16 -9 6 4 9 3 8
-2 -1 -4 14 -25 35 -46 20 -20 37 -34 37 -30 0 5 5 0 11 -9 5 -10 17 -18 24
-18 8 0 15 -4 15 -10 0 -5 7 -10 15 -10 8 0 15 -4 15 -10 0 -5 11 -12 25 -16
14 -3 25 -12 25 -19 0 -7 9 -15 20 -18 11 -3 18 -1 14 4 -3 5 2 6 10 3 9 -3
16 -11 16 -17 0 -6 3 -7 7 -4 3 4 12 2 20 -4 10 -9 13 -8 13 0 0 7 5 9 13 4 6
-4 20 -6 31 -4 11 1 16 -2 11 -8 -8 -14 17 -10 27 4 5 6 8 5 8 -2 0 -7 7 -10
15 -7 8 4 15 1 15 -6 0 -10 3 -10 15 0 8 7 15 9 15 5 0 -4 7 -2 15 5 12 10 15
10 15 -1 0 -9 3 -10 8 -4 4 6 23 12 42 14 19 1 41 8 49 14 11 9 13 9 8 0 -4
-6 -2 -15 4 -19 7 -4 9 -3 6 3 -4 6 0 16 8 23 8 7 15 9 15 6 0 -4 7 0 16 9 13
12 19 13 30 4 12 -10 13 -9 8 5 -4 11 -1 16 10 16 9 0 16 4 16 9 0 5 12 12 27
16 15 3 31 12 35 18 4 6 17 12 30 13 37 2 52 8 66 24 8 8 11 9 7 2 -3 -6 -1
-12 4 -12 6 0 11 5 11 11 0 6 7 8 15 5 9 -3 18 1 22 10 3 8 12 13 20 10 8 -3
11 -1 8 4 -6 9 8 14 28 11 5 -1 6 2 4 6 -3 5 1 13 8 20 11 10 15 10 18 0 3 -7
6 -4 6 6 1 9 4 16 9 16 16 -3 32 1 31 8 -3 19 2 34 9 29 8 -5 35 20 40 37 5
20 68 77 79 72 8 -2 11 0 8 5 -8 13 72 93 85 85 6 -3 7 1 4 9 -3 9 -1 16 5 16
6 0 11 8 12 18 0 10 3 12 6 5 2 -7 9 -13 14 -13 4 0 6 6 3 13 -2 7 9 24 25 37
17 12 28 27 25 32 -3 4 0 7 8 6 7 -2 12 3 10 11 -2 9 3 11 13 7 9 -3 13 -2 10
4 -3 6 -1 10 4 10 6 0 11 7 11 15 0 8 9 19 20 25 11 6 19 16 17 23 -1 7 4 11
11 9 6 -1 11 1 11 5 -4 22 3 33 18 33 9 0 13 3 10 6 -9 9 33 65 43 59 5 -3 11
-1 15 5 4 6 11 7 17 4 6 -4 17 1 25 11 7 11 13 15 13 11 0 -5 7 -3 15 4 8 7
21 10 29 7 10 -4 13 -1 10 7 -3 7 2 13 11 14 8 1 22 3 30 4 8 1 13 4 10 7 -3
2 13 13 35 23 22 10 40 23 40 28 0 6 7 10 15 10 8 0 15 5 15 11 0 5 5 7 12 3
7 -4 8 -3 4 4 -7 11 26 35 38 27 3 -3 2 0 -3 6 -6 7 -2 18 10 30 10 10 19 26
19 35 0 9 5 12 13 8 8 -5 8 -2 -2 9 -10 13 -10 17 -1 17 7 0 10 7 6 16 -3 8
-2 12 4 9 6 -3 10 5 10 19 0 14 5 26 10 26 6 0 10 5 10 11 0 16 47 58 56 50 4
-3 4 -1 0 6 -7 12 26 36 38 28 3 -3 4 -2 2 1 -9 12 34 43 51 38 14 -5 15 -4 4
4 -11 8 -10 11 4 19 9 5 17 14 18 19 1 11 11 23 73 90 28 29 48 57 45 61 -3 3
2 3 11 0 12 -4 15 -2 11 9 -3 7 0 14 7 14 6 0 8 5 4 12 -5 8 -2 9 11 4 14 -5
15 -3 7 6 -11 15 10 42 24 30 5 -4 2 1 -5 11 -8 9 -9 17 -3 17 5 0 15 14 21
30 5 17 7 30 4 30 -4 0 2 7 13 16 10 8 13 13 7 9 -7 -3 -13 -1 -13 4 0 6 5 11
11 11 6 0 9 7 5 15 -3 8 0 15 7 15 8 0 6 4 -3 10 -8 5 -10 10 -4 10 7 0 10 13
8 31 -2 16 0 28 4 25 4 -2 7 45 6 105 -1 76 2 107 10 103 6 -3 2 2 -8 10 -11
9 -15 16 -10 16 6 0 11 7 11 15 0 8 -5 15 -11 15 -5 0 -1 7 10 15 19 14 19 14
0 15 -11 0 -16 3 -13 6 3 4 1 16 -5 28 -11 20 -10 20 8 6 18 -15 18 -14 0 14
-15 23 -16 30 -5 37 11 7 10 9 -4 9 -9 0 -16 3 -16 8 3 20 -2 32 -13 26 -7 -4
-8 -3 -4 5 4 6 2 28 -5 49 -7 20 -13 40 -14 44 0 3 -3 10 -7 14 -5 4 -8 17 -8
28 0 12 -7 31 -15 43 -11 15 -12 24 -4 29 8 4 7 9 -2 15 -12 7 -11 9 0 9 11 0
11 3 -3 13 -9 7 -18 22 -19 34 0 12 -3 20 -5 18 -6 -5 -32 21 -32 32 0 4 -12
17 -26 28 -24 18 -72 95 -59 95 3 0 -3 10 -15 22 -11 12 -20 26 -20 31 0 4 -7
15 -15 24 -8 8 -13 19 -9 24 3 5 2 8 -3 7 -4 -2 -10 2 -12 7 -6 13 -28 35 -36
35 -12 0 -34 28 -27 35 4 4 0 5 -8 3 -8 -2 -14 2 -13 8 1 7 -6 10 -17 7 -11
-3 -20 -1 -20 5 0 6 -16 19 -35 28 -19 9 -32 21 -28 27 4 6 0 8 -10 4 -11 -4
-20 1 -27 14 -6 11 -15 17 -19 14 -5 -3 -12 7 -15 20 -4 14 -11 23 -16 20 -6
-3 -10 0 -10 8 0 7 -11 23 -25 35 -14 13 -23 28 -19 34 4 6 3 8 -3 5 -12 -8
-54 38 -45 49 4 4 -2 4 -13 0 -11 -4 -16 -4 -12 0 9 9 -13 35 -24 28 -5 -2
-11 6 -15 20 -3 14 -11 23 -18 20 -7 -3 -26 8 -42 24 -17 15 -38 31 -47 35 -9
3 -17 11 -17 16 0 5 -7 12 -16 15 -10 4 -13 2 -9 -7 4 -6 -1 -3 -9 7 -9 11
-16 16 -16 11 0 -4 -8 1 -17 11 -10 10 -27 21 -38 22 -11 2 -24 8 -29 13 -6 5
-27 9 -48 9 -21 0 -38 4 -38 8 0 5 -7 9 -15 9 -8 0 -15 -5 -15 -11 0 -7 -3 -8
-8 -1 -4 6 -20 11 -37 12 -56 2 -85 7 -85 16 0 5 -6 5 -13 -2 -9 -7 -17 -7
-23 -1 -6 6 -29 11 -52 12 -22 1 -39 4 -37 8 2 3 -14 5 -36 4 -30 -1 -39 2
-39 15 0 14 -2 14 -10 1 -8 -13 -13 -13 -31 -2 -11 8 -18 9 -14 3 4 -7 -6 -11
-29 -11 -19 0 -38 5 -42 11 -4 8 -9 7 -15 -2 -5 -8 -9 -9 -9 -3 0 5 -11 10
-25 10 -14 0 -25 -4 -25 -9 0 -4 -6 -5 -12 0 -18 11 -67 12 -74 2 -2 -5 -16
-4 -30 1 -19 7 -23 7 -18 -2z"/>
</g>
</svg>
